<?xml version="1.0" encoding="UTF-8"?>
<svg width="72px" height="24px" viewBox="0 0 72 24" version="1.1" xmlns="http://www.w3.org/2000/svg" xmlns:xlink="http://www.w3.org/1999/xlink">
    <g id="Ecommerce" stroke="none" stroke-width="1" fill="none" fill-rule="evenodd">
        <g id="product_v01" transform="translate(-1008.000000, -642.000000)">
            <g id="Buy-Area" transform="translate(852.000000, 146.000000)">
                <g id="BNPL" transform="translate(0.000000, 496.000000)">
                    <g id="Afterpay-icon" transform="translate(156.000000, 0.000000)">
                        <rect id="Rectangle" fill="#B2FCE4" x="0" y="0" width="72" height="24" rx="12"></rect>
                        <path d="M61.2073179,9.01861169 L59.643763,8.12085866 L58.0578397,7.21192564 C57.0054039,6.60820629 55.6946125,7.36620947 55.6946125,8.57812017 L55.6946125,8.78383195 C55.6946125,8.89563182 55.7538889,8.99736972 55.8511917,9.05326966 L56.5871138,9.4747552 C56.7929036,9.59326307 57.0456671,9.44568723 57.0456671,9.21090749 L57.0456671,8.72569601 C57.0456671,8.48644427 57.3062596,8.33775043 57.5131678,8.4551403 L58.9626436,9.2869314 L60.4087641,10.1164865 C60.6179092,10.2372304 60.6179092,10.5368541 60.4087641,10.6575979 L58.9626436,11.487153 L57.5131678,12.3178261 C57.3062596,12.437452 57.0456671,12.2876402 57.0456671,12.0483884 L57.0456671,11.8069007 C57.0456671,10.59499 55.7348758,9.83586881 54.6835584,10.4395882 L53.0976351,11.3496392 L51.5340802,12.2473922 C50.4760523,12.8533476 50.4760523,14.3760619 51.5340802,14.9820173 L53.0976351,15.8797703 L54.6835584,16.7887033 C55.7348758,17.3913047 57.0456671,16.6333015 57.0456671,15.4213908 L57.0456671,15.216797 C57.0456671,15.1038791 56.9875092,15.0021413 56.8902064,14.9462413 L56.1531658,14.5247558 C55.9484945,14.4062479 55.6946125,14.5538237 55.6946125,14.7886035 L55.6946125,15.273815 C55.6946125,15.5141847 55.4351385,15.6628785 55.2271119,15.5443707 L53.7776361,14.7125796 L52.332634,13.8841425 C52.1234889,13.7633986 52.1234889,13.4626569 52.332634,13.341913 L53.7776361,12.5145939 L55.2271119,11.6828028 C55.4351385,11.562059 55.6946125,11.7118708 55.6946125,11.9533585 L55.6946125,12.1926103 C55.6946125,13.404521 57.0054039,14.1636422 58.0578397,13.5599228 L59.643763,12.6509898 L61.2073179,11.7521188 C62.2642274,11.1461634 62.2642274,9.62456704 61.2073179,9.01861169" id="Fill-3" fill="#000000"></path>
                        <polygon id="Fill-5" fill="#000000" points="50.935053 9.31778817 47.2666266 16.887758 45.7433349 16.887758 47.1145211 14.0592211 44.9593206 9.31778817 46.5217571 9.31778817 47.9052459 12.4929048 49.4195902 9.31778817"></polygon>
                        <path d="M14.2913878,14.6926792 L14.2913878,13.9939299 C13.8943478,14.4791414 13.3015838,14.7787651 12.5925038,14.7787651 C11.1184227,14.7787651 10,13.5970404 10,12.0050101 C10,10.4263958 11.1620412,9.22119307 12.624938,9.22119307 C13.312768,9.22119307 13.8943478,9.52193475 14.2913878,9.99484824 L14.2913878,9.31734097 L15.6156003,9.31734097 L15.6156003,14.6926792 L14.2913878,14.6926792 Z M14.2802036,12.0050101 C14.2802036,11.1016671 13.6248079,10.4677617 12.8195436,10.4677617 C12.010924,10.4677617 11.3555283,11.112847 11.3555283,12.0050101 C11.3555283,12.8871111 12.010924,13.5422584 12.8195436,13.5422584 C13.6248079,13.5422584 14.2802036,12.9083531 14.2802036,12.0050101 L14.2802036,12.0050101 Z" id="Fill-7" fill="#000000"></path>
                        <path d="M22.0395965,13.4993273 C21.5765695,13.4993273 21.4490693,13.3271555 21.4490693,12.8754839 L21.4490693,10.4907925 L22.2979521,10.4907925 L22.2979521,9.31801177 L21.4490693,9.31801177 L21.4490693,8.00548118 L20.0946594,8.00548118 L20.0946594,9.31801177 L18.3476832,9.31801177 L18.3476832,8.78249035 C18.3476832,8.33081883 18.5210387,8.15976502 18.9930131,8.15976502 L19.2905135,8.15976502 L19.2905135,7.11667214 L18.6373547,7.11667214 C17.518932,7.11667214 16.9921549,7.48225775 16.9921549,8.60025654 L16.9921549,9.31801177 L16.2394564,9.31801177 L16.2394564,10.4907925 L16.9921549,10.4907925 L16.9921549,14.692232 L18.3476832,14.692232 L18.3476832,10.4907925 L20.0946594,10.4907925 L20.0946594,13.1225617 C20.0946594,14.2204365 20.5140679,14.692232 21.6090037,14.692232 L22.3080179,14.692232 L22.3080179,13.4993273 L22.0395965,13.4993273 Z" id="Fill-9" fill="#000000"></path>
                        <path d="M24.2010601,12.3606455 C24.2994813,13.1555426 24.8687585,13.6060962 25.5879043,13.6060962 C26.1582998,13.6060962 26.6000768,13.3388944 26.857314,12.9073469 L28.2441581,12.9073469 C27.9220524,14.0488237 26.9009325,14.7788769 25.5577068,14.7788769 C23.9337571,14.7788769 22.7918476,13.6396361 22.7918476,12.0151839 C22.7918476,10.3918496 23.9963888,9.22018688 25.5879043,9.22018688 C27.1917224,9.22018688 28.3537635,10.4041476 28.3537635,12.0151839 C28.3537635,12.1348097 28.3414609,12.2521996 28.3213293,12.3606455 L24.2010601,12.3606455 Z M26.9009325,11.5221464 C26.8036297,10.8233972 26.2332341,10.4041476 25.5677727,10.4041476 C24.9000743,10.4041476 24.3531656,10.8110992 24.2133628,11.5221464 L26.9009325,11.5221464 Z" id="Fill-11" fill="#000000"></path>
                        <path d="M32.7115857,16.887199 L32.7115857,9.31722917 L34.0357981,9.31722917 L34.0357981,10.0159784 C34.4328382,9.52182295 35.0233654,9.22108127 35.7335638,9.22108127 C37.1852764,9.22108127 38.3260675,10.413986 38.3260675,11.9948363 C38.3260675,13.5745686 37.1640264,14.7786533 35.7011295,14.7786533 C35.0233654,14.7786533 34.464154,14.5103336 34.0771798,14.0586621 L34.0771798,16.887199 L32.7115857,16.887199 Z M36.9716577,12.0048983 C36.9716577,11.1339772 36.3140251,10.4676499 35.5076424,10.4676499 C34.7012596,10.4676499 34.0447455,11.1127352 34.0447455,12.0048983 C34.0447455,12.8869993 34.7012596,13.5421466 35.5076424,13.5421466 C36.3140251,13.5421466 36.9716577,12.8758193 36.9716577,12.0048983 L36.9716577,12.0048983 Z" id="Fill-13" fill="#000000"></path>
                        <path d="M43.1028508,14.6926792 L43.1028508,13.9939299 C42.7046923,14.4791414 42.1130467,14.7787651 41.4028483,14.7787651 C39.9298857,14.7787651 38.811463,13.5970404 38.811463,12.0050101 C38.811463,10.4263958 39.9735041,9.22119307 41.436401,9.22119307 C42.1242309,9.22119307 42.7046923,9.52193475 43.1028508,9.99484824 L43.1028508,9.31734097 L44.4259448,9.31734097 L44.4259448,14.6926792 L43.1028508,14.6926792 Z M43.0916666,12.0050101 C43.0916666,11.1016671 42.4362709,10.4677617 41.6298881,10.4677617 C40.822387,10.4677617 40.1669913,11.112847 40.1669913,12.0050101 C40.1669913,12.8871111 40.822387,13.5422584 41.6298881,13.5422584 C42.4362709,13.5422584 43.0916666,12.9083531 43.0916666,12.0050101 L43.0916666,12.0050101 Z" id="Fill-15" fill="#000000"></path>
                        <path d="M30.3283388,9.8440302 C30.3283388,9.8440302 30.664984,9.22018688 31.4892615,9.22018688 C31.8426831,9.22018688 32.0708413,9.34316674 32.0708413,9.34316674 L32.0708413,10.7127153 C32.0708413,10.7127153 31.5731432,10.4052656 31.1157084,10.4689915 C30.6593919,10.5293635 30.3697204,10.948613 30.3708388,11.5098484 L30.3708388,14.692791 L29.0041263,14.692791 L29.0041263,9.31745277 L30.3283388,9.31745277 L30.3283388,9.8440302 Z" id="Fill-17" fill="#000000"></path>
                    </g>
                </g>
            </g>
        </g>
    </g>
</svg>