<?xml version="1.0" encoding="UTF-8"?>
<svg width="18px" height="18px" viewBox="0 0 18 18" version="1.1" xmlns="http://www.w3.org/2000/svg" xmlns:xlink="http://www.w3.org/1999/xlink">
    <title>B4B17BD8-5F35-48DF-AAA7-9DB71FED68A4</title>
    <g id="Style-Guide" stroke="none" stroke-width="1" fill="none" fill-rule="evenodd">
        <g id="styleguide_v01" transform="translate(-259.000000, -2851.000000)" fill="#FFFFFF" fill-rule="nonzero">
            <path d="M268.007972,2869 C272.978541,2869 277.007972,2864.97057 277.007972,2860 C277.007972,2855.02943 272.978541,2851 268.007972,2851 C263.037403,2851 259.007972,2855.02943 259.007972,2860 C259.007972,2864.97057 263.037403,2869 268.007972,2869 Z M266.145754,2864.76541 L262.371561,2860.99121 C262.144852,2860.76447 262.144852,2860.39678 262.371561,2860.17004 L263.192735,2859.3489 C263.419479,2859.12216 263.787167,2859.12216 264.01391,2859.3489 L266.556359,2861.89138 L272.002034,2856.44571 C272.228813,2856.21893 272.596501,2856.21893 272.823209,2856.44571 L273.644384,2857.26685 C273.871092,2857.49359 273.871092,2857.86128 273.644384,2858.08802 L266.966964,2864.76544 C266.740185,2864.99215 266.372533,2864.99215 266.145754,2864.76541 Z" id="white-check-circle"></path>
        </g>
    </g>
</svg>