<?xml version="1.0" encoding="UTF-8"?>
<svg width="12px" height="12px" viewBox="0 0 12 12" version="1.1" xmlns="http://www.w3.org/2000/svg" xmlns:xlink="http://www.w3.org/1999/xlink">
    <g id="Ecommerce" stroke="none" stroke-width="1" fill="none" fill-rule="evenodd">
        <g id="homepage_v01" transform="translate(-100.000000, -14.000000)" fill="#FFFFFF" fill-rule="nonzero">
            <g id="Customer-Service" transform="translate(100.000000, 11.000000)">
                <path d="M10.499975,3 L1.5,3 C0.672659224,3 0,3.67265922 0,4.5 L0,11.2499803 C0,12.0773175 0.672659224,12.7499768 1.5,12.7499768 L3.74999106,12.7499768 L3.74999106,14.7187221 C3.74999106,14.9484044 4.01249501,15.0820024 4.19763709,14.9460698 L7.12498301,12.7499768 L10.499975,12.7499768 C11.3273122,12.7499768 11.9999714,12.0773175 11.9999714,11.2499803 L11.9999714,4.5 C11.9999714,3.67265922 11.3273122,3 10.499975,3 Z M6.74998391,9.18748525 C6.74998391,9.29061916 6.66561826,9.3749848 6.56248435,9.3749848 L3.1874924,9.3749848 C3.08435849,9.3749848 2.99999285,9.29061916 2.99999285,9.18748525 L2.99999285,8.81248614 C2.99999285,8.70935223 3.08435849,8.62498659 3.1874924,8.62498659 L6.56248435,8.62498659 C6.66561826,8.62498659 6.74998391,8.70935223 6.74998391,8.81248614 L6.74998391,9.18748525 Z M8.99997854,6.93749061 C8.99997854,7.04062452 8.9156129,7.12499017 8.81247899,7.12499017 L3.1874924,7.12499017 C3.08435849,7.12499017 2.99999285,7.04062452 2.99999285,6.93749061 L2.99999285,6.56249151 C2.99999285,6.4593576 3.08435849,6.37499195 3.1874924,6.37499195 L8.81247899,6.37499195 C8.9156129,6.37499195 8.99997854,6.4593576 8.99997854,6.56249151 L8.99997854,6.93749061 Z" id="comment-icon"></path>
            </g>
        </g>
    </g>
</svg>