<?xml version="1.0" encoding="UTF-8"?>
<svg width="12px" height="12px" viewBox="0 0 12 12" version="1.1" xmlns="http://www.w3.org/2000/svg" xmlns:xlink="http://www.w3.org/1999/xlink">
    <g id="Ecommerce" stroke="none" stroke-width="1" fill="none" fill-rule="evenodd">
        <g id="product_afterpay_v01" transform="translate(-1045.000000, -159.000000)" fill="#000000">
            <g id="Popup" transform="translate(365.000000, 141.000000)">
                <g id="Element-/-Cross" transform="translate(680.000000, 18.000000)">
                    <g id="icon-/-solid-/-interface-/-cancel-5637" transform="translate(0.600045, 0.260692)">
                        <path d="M10.9764639,10.1442722 L6.67999116,5.74016488 L10.9762093,1.33657937 C11.2656063,1.02945637 11.2614675,0.541268985 10.9669072,0.239347235 C10.6723468,-0.0625745155 10.1960623,-0.0668167319 9.89642752,0.229812584 L5.59995479,4.6333981 L1.30373661,0.229290771 C1.1108067,0.0315393203 0.829605222,-0.0456914123 0.566058058,0.0266906421 C0.302510894,0.0990726965 0.096657126,0.310070982 0.0260398762,0.580204487 C-0.0445773735,0.850337991 0.030770335,1.13856701 0.223700249,1.33631846 L4.51991843,5.74042579 L0.223191158,10.1445331 C-0.0661359674,10.4517259 -0.0618852805,10.939913 0.232744841,11.2417639 C0.527374964,11.5436148 1.00366109,11.5477415 1.30322752,11.251039 L5.59995479,6.84719257 L9.89617298,11.2512999 C10.1944168,11.5570692 10.6780225,11.5571276 10.9763366,11.2514303 C11.2746507,10.9457331 11.2747077,10.4500415 10.9764639,10.1442722 Z" id="Path"></path>
                    </g>
                </g>
            </g>
        </g>
    </g>
</svg>