<?xml version="1.0" encoding="UTF-8"?>
<svg width="16px" height="16px" viewBox="0 0 16 16" version="1.1" xmlns="http://www.w3.org/2000/svg" xmlns:xlink="http://www.w3.org/1999/xlink">
    <g id="Style-Guide" stroke="none" stroke-width="1" fill="none" fill-rule="evenodd">
        <g id="styleguide_v01" transform="translate(-644.000000, -1885.000000)" fill="#FFFFFF" fill-rule="nonzero">
            <g id="Notifications" transform="translate(0.000000, 1703.000000)">
                <g id="Banners" transform="translate(100.000000, 82.000000)">
                    <g id="Error" transform="translate(0.000000, 78.000000)">
                        <path d="M552,22 C547.580645,22 544,25.5806452 544,30 C544,34.4193548 547.580645,38 552,38 C556.419355,38 560,34.4193548 560,30 C560,25.5806452 556.419355,22 552,22 Z M555.922568,32.0999874 C556.074187,32.2516066 556.074187,32.4967868 555.922568,32.6483745 L554.645161,33.922568 C554.493542,34.0741872 554.248393,34.0741872 554.096774,33.922568 L552,31.8064516 L549.900013,33.922568 C549.748393,34.0741872 549.503213,34.0741872 549.351626,33.922568 L548.077432,32.6451613 C547.925813,32.4935421 547.925813,32.2483934 548.077432,32.0967742 L550.193548,30 L548.077432,27.9000126 C547.925813,27.7483934 547.925813,27.5032132 548.077432,27.3516255 L549.354839,26.0741872 C549.506458,25.922568 549.751607,25.922568 549.903226,26.0741872 L552,28.1935484 L554.099987,26.077432 C554.251607,25.9258128 554.496787,25.9258128 554.648374,26.077432 L555.925813,27.3548387 C556.077432,27.5064579 556.077432,27.7516066 555.925813,27.9032258 L553.806452,30 L555.922568,32.0999874 Z" id="error-icon"></path>
                    </g>
                </g>
            </g>
        </g>
    </g>
</svg>