<?xml version="1.0" encoding="UTF-8"?>
<svg width="12px" height="12px" viewBox="0 0 12 12" version="1.1" xmlns="http://www.w3.org/2000/svg" xmlns:xlink="http://www.w3.org/1999/xlink">
    <g id="Ecommerce" stroke="none" stroke-width="1" fill="none" fill-rule="evenodd">
        <g id="homepage_v01" transform="translate(-1243.000000, -14.000000)" fill="#FFFFFF" fill-rule="nonzero">
            <g id="Country" transform="translate(1243.000000, 9.000000)">
                <path d="M8.14276431,8.67815802 C7.79188739,6.51724491 6.96429711,5 6.00120519,5 C5.03811328,5 4.210523,6.51724491 3.85964608,8.67815802 L8.14276431,8.67815802 Z M3.67815802,11.0012052 C3.67815802,11.5384146 3.70720084,12.0538359 3.75800804,12.5499033 L8.24196833,12.5499033 C8.29279916,12.0538359 8.32184198,11.5384146 8.32184198,11.0012052 C8.32184198,10.4639958 8.29279916,9.94857444 8.24196833,9.45250708 L3.75800804,9.45250708 C3.70720084,9.94857444 3.67815802,10.4639958 3.67815802,11.0012052 Z M11.5353858,8.67815802 C10.8432972,7.03507666 9.44222354,5.76466024 7.71203737,5.2516729 C8.30246435,6.06957436 8.70901651,7.30125915 8.92195777,8.67815802 L11.5353858,8.67815802 Z M4.28796263,5.2516729 C2.56018684,5.76466024 1.15667918,7.03507666 0.467024549,8.67815802 L3.08045262,8.67815802 C3.29098349,7.30125915 3.69751202,6.06957436 4.28796263,5.2516729 Z M11.7943135,9.45250708 L9.0187514,9.45250708 C9.06955861,9.96067365 9.09860142,10.4809394 9.09860142,11.0012052 C9.09860142,11.521471 9.06955861,12.0417367 9.0187514,12.5499033 L11.7918795,12.5499033 C11.9249708,12.0538359 12,11.5384146 12,11.0012052 C12,10.4639958 11.9249708,9.94857444 11.7943135,9.45250708 Z M2.90380896,11.0012052 C2.90380896,10.4809394 2.93285178,9.96067365 2.98365899,9.45250708 L0.208096857,9.45250708 C0.077439632,9.94857444 0,10.4639958 0,11.0012052 C0,11.5384146 0.077439632,12.0538359 0.208096857,12.5499033 L2.9812486,12.5499033 C2.93285178,12.0417367 2.90380896,11.521471 2.90380896,11.0012052 Z M3.85964608,13.3242524 C4.210523,15.4851655 5.03811328,17.0024104 6.00120519,17.0024104 C6.96429711,17.0024104 7.79188739,15.4851655 8.14276431,13.3242524 L3.85964608,13.3242524 Z M7.71444776,16.7507375 C9.44222354,16.2377501 10.8457312,14.9673337 11.5377962,13.3242524 L8.92436816,13.3242524 C8.71142689,14.7011512 8.30489837,15.932836 7.71444776,16.7507375 Z M0.467024549,13.3242524 C1.1591132,14.9673337 2.56018684,16.2377501 4.29037302,16.7507375 C3.69994604,15.932836 3.29339388,14.7011512 3.08045262,13.3242524 L0.467024549,13.3242524 Z" id="global-icon"></path>
            </g>
        </g>
    </g>
</svg>