<?xml version="1.0" encoding="UTF-8"?>
<svg width="13px" height="14px" viewBox="0 0 13 14" version="1.1" xmlns="http://www.w3.org/2000/svg" xmlns:xlink="http://www.w3.org/1999/xlink">
    <title>A29DA9BF-F3D5-45A3-9517-EC415CCC5C28</title>
    <g id="Checkout" stroke="none" stroke-width="1" fill="none" fill-rule="evenodd" fill-opacity="0.7">
        <g id="checkout_s1" transform="translate(-906.000000, -401.000000)" fill="#FFFFFF" fill-rule="nonzero">
            <g id="Summary" transform="translate(807.000000, 0.000000)">
                <g id="Shipping" transform="translate(43.000000, 397.000000)">
                    <path d="M62.4999845,17.4218716 C65.9774008,17.4218716 68.7968445,14.6034446 68.7968445,11.1250116 C68.7968445,7.64861191 65.9774008,4.82815164 62.4999845,4.82815164 C59.0225682,4.82815164 56.2031245,7.64861191 56.2031245,11.1250116 C56.2031245,14.6034446 59.0225682,17.4218716 62.4999845,17.4218716 Z M63.2109203,12.5468832 L61.7890487,12.5468832 C61.6207866,12.5468832 61.4843619,12.4104585 61.4843619,12.2421965 L61.4843619,12.1406342 C61.4843619,11.0981333 62.2747176,10.6813958 62.8720158,10.3465577 C63.3841663,10.0594262 63.6980522,9.86413702 63.6980522,9.48389844 C63.6980522,8.98089747 63.0564693,8.64707602 62.5377728,8.64707602 C61.8473924,8.64707602 61.5363828,8.98067431 61.0827992,9.55597888 C60.9801212,9.6862295 60.7918244,9.71008275 60.6596645,9.60985944 L59.7786565,8.94181981 C59.649968,8.84424962 59.6199407,8.66324267 59.7097251,8.52902477 C60.4027338,7.4930699 61.2852543,6.91017792 62.6689657,6.91017792 C64.1001356,6.91017792 65.6277351,8.02731317 65.6277351,9.5000155 C65.6277351,11.4555849 63.5156071,11.4856866 63.5156071,12.2083506 L63.5156071,12.2421965 C63.5156071,12.4104585 63.3791824,12.5468832 63.2109203,12.5468832 Z M62.4999845,15.5429698 C61.8559469,15.5429698 61.3320185,15.0190167 61.3320185,14.3750039 C61.3320185,13.7309663 61.8559469,13.2070379 62.4999845,13.2070379 C63.1440221,13.2070379 63.6679505,13.7309663 63.6679505,14.3750039 C63.6679505,15.0190167 63.1440221,15.5429698 62.4999845,15.5429698 Z" id="question-circle"></path>
                </g>
            </g>
        </g>
    </g>
</svg>