<?xml version="1.0" encoding="UTF-8"?>
<svg width="16px" height="16px" viewBox="0 0 16 16" version="1.1" xmlns="http://www.w3.org/2000/svg" xmlns:xlink="http://www.w3.org/1999/xlink">
    <g id="Style-Guide" stroke="none" stroke-width="1" fill="none" fill-rule="evenodd">
        <g id="styleguide_v01" transform="translate(-634.000000, -1807.000000)" fill="#FFFFFF" fill-rule="nonzero">
            <g id="Notifications" transform="translate(0.000000, 1703.000000)">
                <g id="Success" transform="translate(100.000000, 82.000000)">
                    <path d="M550,30 C550,25.5817162 546.418284,22 542,22 C537.581716,22 534,25.5817162 534,30 C534,34.4182838 537.581716,38 542,38 C546.418284,38 550,34.4182838 550,30 Z M541.07466,34.2359501 C540.873078,34.4374685 540.546276,34.4374685 540.344695,34.2359186 L536.989856,30.8810799 C536.788338,30.67953 536.788338,30.3526966 536.989856,30.1511467 L537.71979,29.421245 C537.921339,29.2196951 538.248173,29.2196951 538.449723,29.421245 L540.709677,31.6812311 L545.550277,26.8406313 C545.751859,26.6390499 546.078692,26.6390499 546.28021,26.8406313 L547.010144,27.570533 C547.211662,27.7720829 547.211662,28.0989163 547.010144,28.3004662 L541.07466,34.2359501 Z" id="tick-icon"></path>
                </g>
            </g>
        </g>
    </g>
</svg>